<svg width="200" height="200" viewBox="0 0 200 200" fill="none" xmlns="http://www.w3.org/2000/svg">
  <defs>
    <!-- Main gradient -->
    <linearGradient id="mainGradient" x1="0%" y1="0%" x2="100%" y2="100%">
      <stop offset="0%" style="stop-color:#818CF8;stop-opacity:1" />
      <stop offset="50%" style="stop-color:#A78BFA;stop-opacity:1" />
      <stop offset="100%" style="stop-color:#F9A8D4;stop-opacity:1" />
    </linearGradient>
    
    <!-- Purple gradient for buddy -->
    <linearGradient id="buddyGradient" x1="0%" y1="0%" x2="0%" y2="100%">
      <stop offset="0%" style="stop-color:#8B5CF6;stop-opacity:1" />
      <stop offset="100%" style="stop-color:#7C3AED;stop-opacity:1" />
    </linearGradient>
    
    <!-- Soft drop shadow -->
    <filter id="dropShadow">
      <feDropShadow dx="0" dy="4" stdDeviation="6" flood-opacity="0.2"/>
    </filter>
    
    <!-- Inner shadow for depth -->
    <filter id="innerShadow">
      <feOffset dx="0" dy="2"/>
      <feGaussianBlur stdDeviation="2"/>
      <feComposite operator="out" in="SourceGraphic"/>
      <feColorMatrix values="0 0 0 0 0 0 0 0 0 0 0 0 0 0 0 0 0 0 0.2 0"/>
    </filter>
  </defs>
  
  <!-- Background circle with gradient -->
  <circle cx="100" cy="100" r="80" fill="url(#mainGradient)" filter="url(#dropShadow)"/>
  
  <!-- White circle for contrast -->
  <circle cx="100" cy="100" r="68" fill="white" opacity="0.98"/>
  
  <!-- Buddy Face -->
  <g id="buddy-face">
    <!-- Main head circle -->
    <circle cx="100" cy="100" r="50" fill="url(#buddyGradient)"/>
    
    <!-- Antenna/Focus indicator -->
    <rect x="97" y="45" width="6" height="15" rx="3" fill="#FCD34D"/>
    <circle cx="100" cy="40" r="7" fill="#FCD34D">
      <animate attributeName="r" values="7;9;7" dur="2s" repeatCount="indefinite"/>
    </circle>
    
    <!-- Eyes with blink animation -->
    <g id="eyes">
      <!-- Left eye -->
      <ellipse cx="85" cy="95" rx="7" ry="10" fill="white"/>
      <ellipse cx="86" cy="97" rx="4" ry="6" fill="#1F2937">
        <animate attributeName="ry" values="6;0.5;6" dur="4s" repeatCount="indefinite"/>
      </ellipse>
      <circle cx="87" cy="95" r="2" fill="white" opacity="0.9"/>
      
      <!-- Right eye -->
      <ellipse cx="115" cy="95" rx="7" ry="10" fill="white"/>
      <ellipse cx="114" cy="97" rx="4" ry="6" fill="#1F2937">
        <animate attributeName="ry" values="6;0.5;6" dur="4s" repeatCount="indefinite"/>
      </ellipse>
      <circle cx="115" cy="95" r="2" fill="white" opacity="0.9"/>
    </g>
    
    <!-- Cute smile -->
    <path d="M 80 110 Q 100 125 120 110" 
          stroke="white" 
          stroke-width="4" 
          stroke-linecap="round" 
          fill="none"/>
    
    <!-- Rosy cheeks -->
    <ellipse cx="65" cy="105" rx="10" ry="6" fill="#FCA5A5" opacity="0.3"/>
    <ellipse cx="135" cy="105" rx="10" ry="6" fill="#FCA5A5" opacity="0.3"/>
    
    <!-- Small decorative elements -->
    <g opacity="0.6">
      <!-- Stars -->
      <polygon points="40,65 42,70 47,70 43,73 45,78 40,75 35,78 37,73 33,70 38,70" fill="#FCD34D"/>
      <polygon points="160,65 162,70 167,70 163,73 165,78 160,75 155,78 157,73 153,70 158,70" fill="#FCD34D"/>
      
      <!-- Dots for extra cuteness -->
      <circle cx="50" cy="100" r="2" fill="#F9A8D4"/>
      <circle cx="150" cy="100" r="2" fill="#F9A8D4"/>
      <circle cx="55" cy="110" r="2" fill="#A78BFA"/>
      <circle cx="145" cy="110" r="2" fill="#A78BFA"/>
    </g>
  </g>
  
  <!-- Bottom text/logo -->
  <text x="100" y="165" font-family="system-ui, -apple-system, sans-serif" font-size="18" font-weight="600" text-anchor="middle" fill="#7C3AED">FB</text>
</svg>