<svg width="200" height="200" viewBox="0 0 200 200" fill="none" xmlns="http://www.w3.org/2000/svg">
  <defs>
    <linearGradient id="bgGradient" x1="0%" y1="0%" x2="100%" y2="100%">
      <stop offset="0%" style="stop-color:#6366F1;stop-opacity:1" />
      <stop offset="100%" style="stop-color:#A855F7;stop-opacity:1" />
    </linearGradient>
  </defs>
  
  <!-- Background Circle -->
  <rect x="20" y="20" width="160" height="160" rx="40" fill="url(#bgGradient)" />
  
  <!-- Letter F -->
  <path d="M55 55 L55 145 L75 145 L75 110 L105 110 L105 90 L75 90 L75 75 L110 75 L110 55 L55 55 Z" fill="white" />
  
  <!-- Letter B -->
  <path d="M125 55 L125 145 L150 145 C160 145 165 140 165 130 L165 120 C165 110 160 107 155 105 C160 103 165 100 165 90 L165 80 C165 70 160 65 150 65 L150 65 L125 65 L125 55 L150 55 C165 55 175 65 175 80 L175 90 C175 100 170 105 165 107 C170 109 175 115 175 125 L175 130 C175 145 165 155 150 155 L125 155 L125 145 Z" fill="white" opacity="0" />
  
  <!-- Simplified B using rectangles and circles -->
  <rect x="125" y="55" width="20" height="90" rx="0" fill="white" />
  <circle cx="145" cy="80" r="20" fill="none" stroke="white" stroke-width="20" stroke-dasharray="31.4 100" stroke-dashoffset="-15.7" />
  <circle cx="145" cy="120" r="20" fill="none" stroke="white" stroke-width="20" stroke-dasharray="31.4 100" stroke-dashoffset="-15.7" />
</svg>